<svg xmlns="http://www.w3.org/2000/svg" viewBox="0 0 271.68 60.6"><defs><style>.cls-1,.cls-3{fill:#4d4d4c;}.cls-2{fill:#00a99d;}.cls-3,.cls-5{stroke:#4d4d4c;}.cls-3,.cls-4,.cls-5,.cls-6{stroke-miterlimit:10;}.cls-3,.cls-4{stroke-width:2px;}.cls-4{fill:#f3f3f3;stroke:#f3f3f3;}.cls-5,.cls-6{fill:none;stroke-width:5px;}.cls-6{stroke:#00a99d;}</style></defs><title>logotip_oppeklass</title><g id="Слой_2" data-name="Слой 2"><g id="Слой_1-2" data-name="Слой 1"><polyline class="cls-1" points="269.2 57.35 146.94 54.46 145.82 1.42 208.14 2.89 269.63 4.35"/><polyline class="cls-2" points="271.68 53.92 147.11 58.82 143.78 5.91 207.31 3.41 269.6 0.96"/><path class="cls-3" d="M19.9,11.48A18.33,18.33,0,0,1,27.29,13,19.12,19.12,0,0,1,37.36,23a18.78,18.78,0,0,1,0,14.69A19.12,19.12,0,0,1,27.29,47.79a18.33,18.33,0,0,1-7.38,1.49,18.22,18.22,0,0,1-7.33-1.49A19.13,19.13,0,0,1,2.5,37.73,18.79,18.79,0,0,1,2.5,23,19.13,19.13,0,0,1,12.57,13,18.22,18.22,0,0,1,19.9,11.48Zm0,33.87a14.53,14.53,0,0,0,5.87-1.17A13.49,13.49,0,0,0,30.4,41a15.06,15.06,0,0,0,3-4.76,15.69,15.69,0,0,0,1.07-5.8,16,16,0,0,0-1-5.8,14.48,14.48,0,0,0-3-4.76,13.84,13.84,0,0,0-4.57-3.21A14.49,14.49,0,0,0,20,15.46a14.48,14.48,0,0,0-5.89,1.17,13.83,13.83,0,0,0-4.57,3.21,14.83,14.83,0,0,0-3,4.76,16.29,16.29,0,0,0,0,11.61,14.6,14.6,0,0,0,3,4.76,14.09,14.09,0,0,0,4.6,3.21A14.35,14.35,0,0,0,20,45.35Z"/><path class="cls-3" d="M44.78,59.6V21.09h4.08v4.43a10.45,10.45,0,0,1,2-2.09,13.14,13.14,0,0,1,2.5-1.62,13.76,13.76,0,0,1,2.88-1,12.68,12.68,0,0,1,3-.37,13.92,13.92,0,0,1,5.63,1.15,15.12,15.12,0,0,1,4.6,3.09,14.47,14.47,0,0,1,3.1,15.81,14.47,14.47,0,0,1-7.7,7.67,14.17,14.17,0,0,1-5.63,1.12,12.22,12.22,0,0,1-3.05-.4,15.35,15.35,0,0,1-2.93-1.07,12.18,12.18,0,0,1-2.5-1.62,11,11,0,0,1-1.87-2V59.6ZM59.21,24.18a10,10,0,0,0-4.09.85,10.19,10.19,0,0,0-3.27,2.29,10.47,10.47,0,0,0-2.15,3.38,11.38,11.38,0,0,0,0,8.25,10.48,10.48,0,0,0,2.15,3.38,10.19,10.19,0,0,0,3.27,2.29,10.35,10.35,0,0,0,8.19,0,10.21,10.21,0,0,0,3.27-2.29,10.94,10.94,0,0,0,0-15A10.21,10.21,0,0,0,63.3,25,10,10,0,0,0,59.21,24.18Z"/><path class="cls-3" d="M79.1,59.6V21.09h4.08v4.43a10.45,10.45,0,0,1,2-2.09,13.15,13.15,0,0,1,2.5-1.62,13.78,13.78,0,0,1,2.88-1,12.68,12.68,0,0,1,3-.37,13.92,13.92,0,0,1,5.63,1.15,15.12,15.12,0,0,1,4.6,3.09,14.47,14.47,0,0,1,3.1,15.81,14.48,14.48,0,0,1-7.7,7.67,14.17,14.17,0,0,1-5.63,1.12,12.22,12.22,0,0,1-3-.4,15.33,15.33,0,0,1-2.93-1.07,12.18,12.18,0,0,1-2.5-1.62,11,11,0,0,1-1.87-2V59.6ZM93.52,24.18a10,10,0,0,0-4.09.85,10.19,10.19,0,0,0-3.27,2.29A10.47,10.47,0,0,0,84,30.69a11.38,11.38,0,0,0,0,8.25,10.48,10.48,0,0,0,2.15,3.38,10.19,10.19,0,0,0,3.27,2.29,10.35,10.35,0,0,0,8.19,0,10.2,10.2,0,0,0,3.27-2.29,10.94,10.94,0,0,0,0-15A10.2,10.2,0,0,0,97.62,25,10,10,0,0,0,93.52,24.18Z"/><path class="cls-3" d="M125.38,20.44a14.07,14.07,0,0,1,5.6,1.12,14.45,14.45,0,0,1,7.67,7.67,14.08,14.08,0,0,1,1.12,5.6v1.1H115.12a10.39,10.39,0,0,0,1.1,3.79,10.17,10.17,0,0,0,2.34,3,11,11,0,0,0,3.41,2,11.9,11.9,0,0,0,4.26.75,20.46,20.46,0,0,0,2.86-.2,11.33,11.33,0,0,0,2.84-.8,13.32,13.32,0,0,0,2.84-1.67A18.94,18.94,0,0,0,137.68,40v5a13.78,13.78,0,0,1-3.09,2.19,19.32,19.32,0,0,1-3.19,1.32,15.86,15.86,0,0,1-2.91.62,21.62,21.62,0,0,1-2.27.15A16.44,16.44,0,0,1,120,48.14a15.07,15.07,0,0,1-4.83-3.09A13.43,13.43,0,0,1,112,40.47a14.54,14.54,0,0,1-1.1-5.63,13.81,13.81,0,0,1,1.15-5.6,15.06,15.06,0,0,1,3.09-4.58,14.3,14.3,0,0,1,10.21-4.21Zm0,3.79a10.13,10.13,0,0,0-3.51.59,10.3,10.3,0,0,0-2.94,1.66A9.82,9.82,0,0,0,116.71,29a11.76,11.76,0,0,0-1.34,3.14h19.92A10.32,10.32,0,0,0,134,29a10.49,10.49,0,0,0-2.22-2.52,9.93,9.93,0,0,0-6.38-2.25Z"/><path class="cls-4" d="M153.26,48.64V10.13h4.13v38.5Zm23.26,0h-5.43l-12.7-15.09V32.3l10.06-11.06h5.63L163.32,33Z"/><path class="cls-4" d="M180.75,48.64V10.13h4.13v38.5Z"/><path class="cls-4" d="M219.16,21.29v27.4h-4.08V44.3a9.9,9.9,0,0,1-1.94,2.07A13.87,13.87,0,0,1,207.8,49a12.28,12.28,0,0,1-3,.37,14,14,0,0,1-5.63-1.15,14.47,14.47,0,0,1-7.67-7.68,14,14,0,0,1-1.15-5.64,13.86,13.86,0,0,1,1.15-5.61,15.08,15.08,0,0,1,3.09-4.59,14.29,14.29,0,0,1,10.21-4.22,11.2,11.2,0,0,1,3,.42,16.81,16.81,0,0,1,2.89,1.1,12.82,12.82,0,0,1,2.52,1.62,9.35,9.35,0,0,1,1.84,2V21.29ZM204.81,45.6a9.71,9.71,0,0,0,4.06-.85,10.22,10.22,0,0,0,3.24-2.29,10.5,10.5,0,0,0,2.14-3.39,11.45,11.45,0,0,0,0-8.27,10.52,10.52,0,0,0-2.14-3.39,10.26,10.26,0,0,0-3.24-2.29,9.72,9.72,0,0,0-4.06-.85,9.84,9.84,0,0,0-4.11.85,10.55,10.55,0,0,0-3.26,2.29,10.31,10.31,0,0,0-2.17,3.39,11.47,11.47,0,0,0,0,8.27,10.29,10.29,0,0,0,2.17,3.39,10.5,10.5,0,0,0,3.26,2.29A9.83,9.83,0,0,0,204.81,45.6Z"/><path class="cls-4" d="M234.3,32.18q1.39.6,2.94,1.34a14.06,14.06,0,0,1,2.84,1.81,9.39,9.39,0,0,1,2.17,2.58,7.22,7.22,0,0,1,.87,3.65,6.4,6.4,0,0,1-.62,2.66,7.8,7.8,0,0,1-1.87,2.51,9.75,9.75,0,0,1-3.12,1.86,12.14,12.14,0,0,1-4.37.72,15.27,15.27,0,0,1-3.52-.37,18.44,18.44,0,0,1-2.67-.82,12.81,12.81,0,0,1-2.25-1.2V41.56a6.59,6.59,0,0,0,1.84,2,11,11,0,0,0,2.59,1.35,11.15,11.15,0,0,0,4,.62,7.42,7.42,0,0,0,2.54-.4,6.43,6.43,0,0,0,1.84-1,4.13,4.13,0,0,0,1.12-1.32,3,3,0,0,0,.37-1.37,3.76,3.76,0,0,0-.6-2.14,6,6,0,0,0-1.49-1.54,10.52,10.52,0,0,0-2-1.12l-2.14-.92A19.71,19.71,0,0,1,226.88,32,6,6,0,0,1,225,27.75a6.28,6.28,0,0,1,.65-2.81,7.16,7.16,0,0,1,1.82-2.31A9.19,9.19,0,0,1,230.26,21a10,10,0,0,1,3.54-.6h0a12,12,0,0,1,2.79.3,16.85,16.85,0,0,1,2.14.65,17.14,17.14,0,0,1,1.91.95v5.13l-1.19-1.18a7.37,7.37,0,0,0-1.37-1.06,6.81,6.81,0,0,0-1.79-.74,9.71,9.71,0,0,0-2.46-.27,5.88,5.88,0,0,0-2.21.37,4.61,4.61,0,0,0-1.47.9,3.19,3.19,0,0,0-.79,1.17,3.24,3.24,0,0,0-.25,1.14,2.31,2.31,0,0,0,.5,1.44,5.6,5.6,0,0,0,1.25,1.17,13,13,0,0,0,1.64,1Q233.45,31.84,234.3,32.18Z"/><path class="cls-4" d="M255.67,32.18q1.39.6,2.94,1.34a14.06,14.06,0,0,1,2.84,1.81,9.39,9.39,0,0,1,2.17,2.58,7.22,7.22,0,0,1,.87,3.65,6.4,6.4,0,0,1-.62,2.66A7.8,7.8,0,0,1,262,46.75a9.75,9.75,0,0,1-3.12,1.86,12.14,12.14,0,0,1-4.37.72A15.27,15.27,0,0,1,251,49a18.44,18.44,0,0,1-2.67-.82,12.81,12.81,0,0,1-2.25-1.2V41.56a6.59,6.59,0,0,0,1.84,2,11,11,0,0,0,2.59,1.35,11.15,11.15,0,0,0,4,.62,7.42,7.42,0,0,0,2.54-.4,6.43,6.43,0,0,0,1.84-1A4.13,4.13,0,0,0,260,42.84a3,3,0,0,0,.37-1.37,3.76,3.76,0,0,0-.6-2.14,6,6,0,0,0-1.49-1.54,10.52,10.52,0,0,0-2-1.12l-2.14-.92A19.71,19.71,0,0,1,248.25,32a6,6,0,0,1-1.84-4.28,6.28,6.28,0,0,1,.65-2.81,7.16,7.16,0,0,1,1.82-2.31A9.19,9.19,0,0,1,251.63,21a10,10,0,0,1,3.54-.6h0a12,12,0,0,1,2.79.3,16.85,16.85,0,0,1,2.14.65,17.14,17.14,0,0,1,1.91.95v5.13l-1.19-1.18a7.37,7.37,0,0,0-1.37-1.06,6.81,6.81,0,0,0-1.79-.74,9.71,9.71,0,0,0-2.46-.27,5.88,5.88,0,0,0-2.21.37,4.61,4.61,0,0,0-1.47.9,3.19,3.19,0,0,0-.79,1.17,3.24,3.24,0,0,0-.25,1.14,2.31,2.31,0,0,0,.5,1.44,5.6,5.6,0,0,0,1.25,1.17,13,13,0,0,0,1.64,1Q254.82,31.84,255.67,32.18Z"/><path class="cls-5" d="M12.55,7.47s1.11-5,6-2.68c5.59,2.61,10,1.93,10.78-1.84"/><path class="cls-6" d="M12.38,5.78s1.11-5,6-2.68C24,5.71,28.39,5,29.15,1.25"/></g></g></svg>